<svg xmlns="http://www.w3.org/2000/svg" xmlns:xlink="http://www.w3.org/1999/xlink" width="1200" zoomAndPan="magnify" viewBox="0 0 900 899.99999" height="1200" preserveAspectRatio="xMidYMid meet" version="1.0"><defs><clipPath id="dda977fa02"><path d="M 51.304688 51.304688 L 848.554688 51.304688 L 848.554688 848.554688 L 51.304688 848.554688 Z M 51.304688 51.304688 " clip-rule="nonzero"/></clipPath><clipPath id="8c9a2a8fa8"><path d="M 450 51.304688 C 229.804688 51.304688 51.304688 229.804688 51.304688 450 C 51.304688 670.191406 229.804688 848.695312 450 848.695312 C 670.191406 848.695312 848.695312 670.191406 848.695312 450 C 848.695312 229.804688 670.191406 51.304688 450 51.304688 Z M 450 51.304688 " clip-rule="nonzero"/></clipPath></defs><g clip-path="url(#dda977fa02)"><g clip-path="url(#8c9a2a8fa8)"><path stroke-linecap="butt" transform="matrix(0.75, 0, 0, 0.75, 51.304334, 51.304349)" fill="none" stroke-linejoin="miter" d="M 531.594249 0.000450913 C 238.000484 0.000450913 0.00047118 238.000463 0.00047118 531.594229 C 0.00047118 825.182786 238.000484 1063.188007 531.594249 1063.188007 C 825.182806 1063.188007 1063.188027 825.182786 1063.188027 531.594229 C 1063.188027 238.000463 825.182806 0.000450913 531.594249 0.000450913 Z M 531.594249 0.000450913 " stroke="#daddd8" stroke-width="124" stroke-opacity="1" stroke-miterlimit="4"/></g></g><path stroke-linecap="round" transform="matrix(20.718749, 0, 0, 20.718749, 201.305296, 201.305311)" fill="none" stroke-linejoin="round" d="M 2.999971 2.99997 L 3.268259 2.99997 C 3.742052 2.99997 3.97942 2.99997 4.172671 3.085566 C 4.343108 3.160792 4.488659 3.28221 4.593674 3.436056 C 4.712641 3.610264 4.755627 3.842919 4.841411 4.307285 L 6.999971 15.999971 L 17.421729 15.999971 C 17.874972 15.999971 18.102347 15.999971 18.289941 15.919843 C 18.455854 15.849141 18.598954 15.734511 18.7051 15.58896 C 18.825198 15.424179 18.876103 15.203779 18.977724 14.763168 L 18.978478 14.759963 L 20.547672 7.96 L 20.548049 7.958492 C 20.702272 7.290129 20.779572 6.955098 20.69473 6.692466 C 20.620258 6.461886 20.463584 6.266373 20.255628 6.141939 C 20.018448 5.99997 19.675877 5.99997 18.988659 5.99997 L 5.499971 5.99997 M 17.999972 20.999971 C 17.447747 20.999971 16.999972 20.552384 16.999972 19.999971 C 16.999972 19.447746 17.447747 18.999971 17.999972 18.999971 C 18.552385 18.999971 18.999972 19.447746 18.999972 19.999971 C 18.999972 20.552384 18.552385 20.999971 17.999972 20.999971 Z M 7.999971 20.999971 C 7.447746 20.999971 6.999971 20.552384 6.999971 19.999971 C 6.999971 19.447746 7.447746 18.999971 7.999971 18.999971 C 8.552196 18.999971 8.999971 19.447746 8.999971 19.999971 C 8.999971 20.552384 8.552196 20.999971 7.999971 20.999971 Z M 7.999971 20.999971 " stroke="#daddd8" stroke-width="2" stroke-opacity="1" stroke-miterlimit="4"/></svg>