<svg xmlns="http://www.w3.org/2000/svg" xmlns:xlink="http://www.w3.org/1999/xlink" width="900" zoomAndPan="magnify" viewBox="0 0 675 675.000002" height="900" preserveAspectRatio="xMidYMid meet" version="1.0"><path fill="#458f03" d="M 77.515625 310.574219 L 155.214844 352.234375 C 154.445312 342.960938 154.386719 333.679688 155.027344 324.398438 C 160.910156 239.242188 224.503906 171.59375 304.902344 157.019531 L 346.863281 78.753906 L 285.023438 4.65625 C 133.613281 28.546875 12.867188 154.554688 1.867188 313.820312 C 0.5 333.511719 0.863281 353.171875 2.949219 372.800781 Z M 77.515625 310.574219 " fill-opacity="1" fill-rule="nonzero"/><path fill="#458f03" d="M 311.070312 596.984375 L 352.730469 519.285156 C 343.457031 520.054688 334.179688 520.117188 324.898438 519.472656 C 239.742188 513.589844 172.089844 449.996094 157.519531 369.597656 L 79.253906 327.636719 L 5.152344 389.476562 C 29.046875 540.886719 155.050781 661.632812 314.320312 672.632812 C 334.011719 674 353.671875 673.636719 373.300781 671.550781 Z M 311.070312 596.984375 " fill-opacity="1" fill-rule="nonzero"/><path fill="#458f03" d="M 597.484375 363.429688 L 519.785156 321.769531 C 520.554688 331.042969 520.613281 340.320312 519.972656 349.605469 C 514.089844 434.757812 450.496094 502.410156 370.097656 516.980469 L 328.136719 595.246094 L 389.976562 669.347656 C 541.386719 645.453125 662.132812 519.449219 673.132812 360.183594 C 674.5 340.488281 674.136719 320.828125 672.050781 301.203125 Z M 597.484375 363.429688 " fill-opacity="1" fill-rule="nonzero"/><path fill="#458f03" d="M 363.929688 77.015625 L 322.269531 154.714844 C 331.542969 153.949219 340.820312 153.886719 350.101562 154.53125 C 435.257812 160.410156 502.910156 224.003906 517.480469 304.402344 L 595.746094 346.363281 L 669.847656 284.523438 C 645.953125 133.113281 519.949219 12.367188 360.679688 1.367188 C 340.988281 0.00390625 321.328125 0.363281 301.699219 2.453125 Z M 363.929688 77.015625 " fill-opacity="1" fill-rule="nonzero"/></svg>