<?xml version="1.0" standalone="no"?>
<!DOCTYPE svg PUBLIC "-//W3C//DTD SVG 20010904//EN"
 "http://www.w3.org/TR/2001/REC-SVG-20010904/DTD/svg10.dtd">
<svg version="1.0" xmlns="http://www.w3.org/2000/svg"
 width="436.000000pt" height="349.000000pt" viewBox="0 0 436.000000 349.000000"
 preserveAspectRatio="xMidYMid meet">

<g transform="translate(0.000000,349.000000) scale(0.100000,-0.100000)"
fill="#000000" stroke="none">
<path d="M1514 3271 c-16 -10 -38 -28 -49 -41 -42 -47 -110 -63 -171 -40 -21
8 -34 7 -62 -7 -49 -25 -58 -43 -44 -90 25 -85 25 -111 -2 -128 -21 -14 -31
-15 -61 -5 -20 7 -52 26 -71 42 -30 27 -39 30 -75 24 -50 -8 -115 -40 -151
-74 -30 -28 -36 -68 -17 -104 9 -16 7 -26 -10 -49 -27 -36 -26 -52 4 -97 27
-40 30 -59 15 -113 -10 -36 -11 -36 -54 -32 -35 4 -48 1 -64 -15 -12 -12 -38
-24 -59 -28 -49 -9 -88 -49 -97 -99 -4 -22 -17 -50 -28 -62 -30 -32 -42 -97
-23 -133 8 -16 19 -32 25 -35 6 -4 17 -21 24 -40 8 -19 24 -36 38 -40 12 -4
36 -18 51 -31 19 -16 41 -24 68 -24 32 0 39 -4 39 -19 0 -11 12 -29 27 -41 25
-19 38 -21 113 -18 71 2 91 7 120 28 43 31 106 60 114 52 3 -3 6 -22 6 -42 0
-27 7 -43 28 -62 44 -40 84 -65 124 -76 20 -5 52 -21 70 -35 52 -39 94 -57
132 -57 30 0 37 -4 42 -26 4 -14 1 -37 -5 -50 -16 -36 -14 -50 12 -79 14 -17
37 -28 67 -33 38 -6 47 -13 61 -41 9 -18 26 -41 40 -51 l23 -18 -18 -76 c-24
-95 -24 -118 0 -194 18 -58 21 -62 54 -67 61 -10 88 -28 127 -85 21 -30 52
-62 68 -70 24 -11 35 -26 48 -70 28 -88 24 -97 -61 -140 -24 -12 -63 -41 -87
-65 -46 -46 -100 -139 -90 -156 4 -5 39 -25 78 -45 106 -52 135 -74 153 -119
19 -50 81 -115 109 -115 36 0 82 37 116 95 19 31 61 95 94 143 80 114 130 208
156 287 27 83 89 156 151 175 24 7 72 29 107 47 48 25 77 33 115 33 124 0 179
43 221 172 16 46 47 117 70 158 56 100 58 107 60 240 1 85 5 124 18 150 32 67
119 195 170 251 126 137 157 189 157 266 0 61 -17 107 -57 158 -24 30 -34 35
-70 35 -58 0 -86 13 -152 70 -84 73 -132 91 -270 100 -64 4 -126 11 -137 15
-16 5 -31 -1 -58 -25 -41 -36 -73 -35 -62 3 18 63 18 74 -6 101 -18 21 -37 29
-93 38 -38 5 -91 21 -117 34 -26 13 -72 33 -101 44 l-54 20 -6 52 c-5 35 -18
69 -46 112 -22 33 -47 78 -57 98 -32 68 -80 57 -135 -32 -16 -26 -37 -51 -45
-54 -9 -4 -52 -3 -97 0 l-80 7 -26 -30 c-25 -30 -29 -31 -128 -36 -121 -6
-119 -8 -108 109 7 69 6 77 -19 114 -36 54 -56 63 -92 41z m53 -83 c10 -19 10
-39 1 -85 -10 -53 -9 -65 8 -99 26 -53 62 -72 107 -56 18 7 68 12 110 12 62 0
81 4 96 19 10 10 20 24 22 30 3 7 24 8 70 3 92 -11 123 -1 154 52 44 75 46 75
103 -16 41 -65 52 -91 52 -124 0 -31 6 -48 27 -68 25 -26 26 -27 7 -41 -10 -8
-22 -15 -25 -15 -3 0 -17 -19 -29 -43 -29 -55 -23 -89 30 -181 22 -37 40 -71
40 -75 0 -3 -23 -12 -52 -19 -29 -6 -59 -19 -67 -27 -13 -13 -13 -17 3 -34 49
-54 302 -55 351 -1 24 26 8 44 -53 60 -26 6 -52 14 -59 16 -8 2 1 25 26 66 48
80 62 121 54 160 -5 26 -3 30 13 25 10 -3 40 -8 66 -12 56 -7 62 -14 50 -58
-13 -46 7 -90 46 -106 33 -14 58 -6 97 30 17 15 27 16 60 9 22 -5 63 -10 92
-10 61 0 147 -17 184 -36 15 -7 50 -34 80 -59 52 -44 83 -58 161 -70 32 -5 40
-12 62 -57 50 -100 37 -133 -120 -306 -33 -37 -79 -99 -103 -137 -23 -39 -52
-83 -64 -98 -19 -25 -22 -44 -27 -170 -5 -135 -6 -145 -36 -197 -17 -30 -52
-109 -78 -175 -31 -77 -58 -130 -77 -147 -27 -26 -36 -28 -107 -28 -73 0 -82
-3 -181 -52 -60 -31 -127 -74 -158 -102 -52 -47 -93 -109 -93 -139 0 -46 -249
-455 -291 -477 -26 -14 -41 -2 -76 59 -40 70 -77 104 -153 141 -39 19 -70 37
-70 40 0 34 140 160 176 160 17 0 63 56 70 85 3 14 -3 52 -15 87 -12 34 -21
70 -21 80 0 16 -30 40 -47 37 -23 -4 -35 6 -68 62 -37 60 -56 74 -130 95 -24
8 -32 18 -43 58 -12 42 -12 58 2 115 32 137 32 135 -8 166 -20 15 -36 35 -36
44 -1 31 -29 53 -82 65 l-53 12 3 56 c5 81 -29 138 -73 122 -25 -10 -57 3
-113 44 -29 22 -72 45 -95 50 -23 6 -57 24 -75 39 -28 24 -34 37 -40 88 -6 52
-10 60 -30 63 -28 4 -125 -34 -170 -66 -44 -32 -140 -42 -165 -17 -9 9 -17 30
-17 47 0 31 0 31 -47 25 -49 -5 -81 5 -96 29 -4 8 -17 14 -27 14 -12 0 -22 9
-26 24 -3 13 -17 34 -30 47 -31 29 -30 60 2 98 14 17 28 47 31 68 8 51 16 60
78 77 29 9 58 22 65 30 9 12 16 13 29 4 78 -49 146 121 89 221 l-22 38 22 28
c26 33 27 48 7 79 -22 33 -11 51 48 81 63 31 80 31 120 1 76 -58 191 -56 222
4 16 31 12 107 -8 148 -17 35 1 44 65 30 73 -15 126 0 182 52 46 44 55 45 73
8z m879 -392 c97 -45 106 -93 41 -206 -75 -128 -82 -140 -89 -140 -3 0 -34 46
-67 102 -72 120 -79 165 -34 218 46 55 76 60 149 26z"/>
<path d="M1574 2900 c-54 -27 -90 -90 -80 -141 3 -19 24 -65 46 -103 22 -37
40 -72 40 -76 0 -4 -20 -11 -45 -14 -24 -4 -54 -15 -67 -26 -22 -17 -22 -19
-5 -38 50 -55 303 -56 352 -2 24 26 8 44 -53 60 -26 6 -52 14 -59 16 -8 2 1
25 26 66 52 87 63 123 51 167 -16 59 -83 111 -143 111 -12 0 -41 -9 -63 -20z
m127 -15 c37 -20 69 -70 69 -110 0 -30 -69 -164 -114 -219 l-23 -29 -61 104
c-73 123 -80 166 -35 219 43 51 106 65 164 35z"/>
<path d="M1586 2818 c-52 -74 48 -151 104 -81 38 48 8 103 -56 103 -23 0 -38
-7 -48 -22z m85 2 c29 -16 25 -65 -6 -86 -51 -33 -104 21 -71 71 17 27 45 32
77 15z"/>
<path d="M1156 2657 c-44 -25 -76 -77 -76 -122 0 -16 21 -68 45 -114 25 -45
45 -84 45 -86 0 -1 -20 -6 -45 -9 -24 -4 -54 -15 -67 -26 -22 -17 -22 -19 -5
-38 24 -26 89 -42 172 -42 83 0 148 16 172 42 17 19 17 21 -5 38 -13 11 -43
22 -67 26 -25 3 -45 10 -45 15 0 5 13 31 30 57 67 109 71 179 13 234 -54 52
-107 60 -167 25z m162 -42 c31 -34 34 -41 30 -86 -4 -36 -20 -73 -62 -144 -31
-52 -59 -95 -61 -95 -8 0 -78 115 -107 175 -21 44 -27 68 -22 90 16 72 63 107
138 101 42 -3 55 -9 84 -41z"/>
<path d="M1177 2582 c-39 -42 -9 -112 46 -112 57 0 89 77 49 113 -25 22 -75
21 -95 -1z m89 -17 c20 -30 11 -62 -21 -77 -52 -23 -99 46 -59 86 23 24 61 20
80 -9z"/>
<path d="M3090 2499 c-53 -22 -100 -85 -100 -133 0 -30 13 -61 58 -140 36 -61
34 -75 -13 -76 -23 0 -85 -35 -85 -48 0 -18 37 -41 80 -51 121 -28 300 2 300
51 0 14 -63 48 -90 48 -49 0 -50 12 -9 80 59 97 66 131 37 188 -13 25 -35 54
-49 65 -31 22 -95 31 -129 16z m117 -29 c44 -26 67 -73 60 -122 -5 -41 -110
-228 -128 -228 -5 0 -24 24 -43 53 -92 144 -107 211 -59 267 14 18 36 36 47
40 36 15 90 11 123 -10z"/>
<path d="M3086 2408 c-31 -44 -15 -93 37 -111 44 -16 96 38 82 84 -17 52 -90
68 -119 27z m86 -5 c20 -18 24 -63 6 -81 -20 -20 -65 -14 -82 10 -21 30 -20
44 4 68 24 24 47 25 72 3z"/>
<path d="M1954 2000 c-54 -27 -90 -90 -80 -141 3 -19 24 -65 46 -103 22 -37
40 -71 40 -75 0 -3 -23 -12 -52 -19 -29 -6 -59 -19 -67 -27 -13 -13 -13 -17 3
-34 49 -54 303 -54 351 -1 24 26 8 44 -53 60 -26 6 -52 14 -59 16 -8 2 1 25
26 66 52 87 63 123 51 167 -16 59 -83 111 -143 111 -12 0 -41 -9 -63 -20z
m127 -15 c37 -20 69 -70 69 -110 0 -32 -114 -245 -132 -245 -3 0 -34 46 -67
103 -72 121 -79 164 -34 217 43 51 106 65 164 35z"/>
<path d="M1966 1918 c-52 -74 48 -151 104 -81 38 48 8 103 -56 103 -23 0 -38
-7 -48 -22z m85 2 c29 -16 25 -65 -6 -86 -51 -33 -104 21 -71 71 17 27 45 32
77 15z"/>
<path d="M2696 1597 c-43 -25 -76 -77 -76 -121 0 -16 20 -67 45 -113 25 -45
45 -85 45 -87 0 -2 -20 -7 -45 -10 -24 -4 -54 -15 -67 -26 -22 -17 -22 -19 -5
-38 24 -26 89 -42 172 -42 83 0 148 16 172 42 17 19 17 21 -5 38 -13 11 -43
22 -67 26 -25 3 -45 10 -45 15 0 5 13 31 30 57 67 109 71 179 13 234 -54 52
-107 60 -167 25z m162 -42 c50 -55 43 -104 -33 -230 -31 -52 -59 -95 -61 -95
-7 0 -78 117 -106 175 -21 44 -27 68 -22 90 16 72 63 107 138 101 42 -3 55 -9
84 -41z"/>
<path d="M2717 1522 c-39 -42 -9 -112 46 -112 57 0 89 77 49 113 -25 22 -75
21 -95 -1z m89 -17 c33 -50 -20 -104 -71 -71 -29 19 -32 51 -8 78 23 26 59 23
79 -7z"/>
<path d="M2216 1357 c-43 -25 -76 -77 -76 -121 0 -16 20 -67 45 -113 25 -45
45 -85 45 -87 0 -2 -20 -7 -45 -10 -24 -4 -54 -15 -67 -26 -22 -17 -22 -19 -5
-38 24 -26 89 -42 172 -42 83 0 148 16 172 42 17 19 17 21 -5 38 -13 11 -43
22 -67 26 -25 3 -45 10 -45 15 0 5 13 31 30 57 67 109 71 179 13 234 -54 52
-107 60 -167 25z m162 -42 c31 -34 34 -41 30 -86 -4 -36 -20 -73 -62 -144 -31
-52 -59 -95 -61 -95 -8 0 -78 115 -107 175 -21 44 -27 68 -22 90 16 72 63 107
138 101 42 -3 55 -9 84 -41z"/>
<path d="M2237 1282 c-39 -42 -9 -112 46 -112 57 0 89 77 49 113 -25 22 -75
21 -95 -1z m89 -17 c33 -50 -20 -104 -71 -71 -29 19 -32 51 -8 78 23 26 59 23
79 -7z"/>
<path d="M2346 2738 c-52 -74 48 -151 104 -81 38 48 8 103 -56 103 -23 0 -38
-7 -48 -22z m85 2 c29 -16 25 -65 -6 -86 -51 -33 -104 21 -71 71 17 27 45 32
77 15z"/>
</g>
</svg>
